<?xml version="1.0" encoding="UTF-8"?>
<svg id="Layer_1" data-name="Layer 1" xmlns="http://www.w3.org/2000/svg" viewBox="0 0 646 280">
  <defs>
    <style>
      .cls-1 {
        fill: #05351d;
      }
    </style>
  </defs>
  <path class="cls-1" d="m67.58,140c-7.89,1.53-23.66,12.69-17.1,45.88,25.47,22.27,43.01,14.19,48.29,8.13-2.62,7.6-.84,26.83,31.18,37.75,32.02-10.92,33.8-30.15,31.18-37.75,5.27,6.07,22.82,14.14,48.29-8.13,6.55-33.19-9.22-44.34-17.1-45.88,7.89-1.53,23.66-12.69,17.1-45.88-25.47-22.27-43.01-14.19-48.29-8.13,2.62-7.6.84-26.83-31.18-37.75-32.02,10.92-33.8,30.15-31.18,37.75-5.27-6.07-22.81-14.15-48.28,8.13-6.55,33.19,9.22,44.35,17.1,45.88Zm127.52-37.62c6.86,11.87,5.1,26.99-4.22,36.97-6.26-17.71-16.75-21.89-25.44-19.85,6.12-6.51,7.75-17.68-4.46-31.96,13.3-3.08,27.27,2.96,34.13,14.83Zm-39.55,37.62c3.73-1.34,11.65-4.57,9.07-19.26,8.34,2.63,14.12,10.47,14.12,19.26s-5.78,16.63-14.12,19.26c2.58-14.69-5.35-17.92-9.07-19.26Zm-60.29,19.26c-8.34-2.63-14.12-10.47-14.12-19.26s5.78-16.63,14.12-19.26c-2.58,14.69,5.35,17.92,9.07,19.26-3.73,1.34-11.65,4.57-9.07,19.26Zm21.88-41.44c-3.03-2.56-9.79-7.81-21.22,1.77-1.89-8.54,2-17.47,9.62-21.86,7.62-4.4,17.29-3.3,23.74,2.6-14.01,5.11-12.85,13.59-12.14,17.49Zm-21.22,42.58c11.43,9.58,18.19,4.33,21.22,1.77-.7,3.9-1.87,12.38,12.15,17.49-6.45,5.91-16.13,7-23.74,2.6-7.62-4.4-11.51-13.32-9.62-21.86Zm21.96.48c-5.58,1.55-11.35-.98-14.12-5.77-2.76-4.79-2.07-11.06,2.06-15.11-4.13-4.05-4.83-10.32-2.06-15.11,2.77-4.79,8.54-7.32,14.12-5.77,1.44-5.61,6.53-9.34,12.06-9.34,5.53,0,10.61,3.74,12.06,9.34,5.58-1.55,11.35.98,14.12,5.77,2.76,4.79,2.07,11.06-2.06,15.11,4.13,4.05,4.83,10.32,2.06,15.11-2.77,4.79-8.54,7.32-14.12,5.77-1.44,5.61-6.53,9.34-12.06,9.34-5.53,0-10.61-3.74-12.06-9.34Zm12.72-60.55c6.45-5.91,16.13-7,23.74-2.6,7.62,4.4,11.51,13.32,9.62,21.86-11.43-9.58-18.19-4.33-21.22-1.77.7-3.9,1.87-12.38-12.15-17.49Zm12.14,61.84c3.03,2.56,9.79,7.81,21.22-1.77,1.89,8.54-2,17.47-9.62,21.86-7.62,4.4-17.29,3.3-23.74-2.6,14.01-5.11,12.84-13.59,12.14-17.49Zm-12.8-97.42c13.71,0,25.93,9.08,29.91,22.14-18.47-3.43-27.33,3.56-29.91,12.11-2.58-8.55-11.44-15.55-29.91-12.11,3.98-13.06,16.2-22.14,29.91-22.14Zm-60.94,74.59c-9.32-9.98-11.08-25.1-4.22-36.97,6.86-11.87,20.83-17.91,34.13-14.83-12.21,14.28-10.58,25.45-4.46,31.96-8.7-2.05-19.18,2.13-25.44,19.85Zm0,1.3c6.26,17.71,16.75,21.89,25.44,19.84-6.12,6.51-7.74,17.68,4.47,31.96-13.3,3.08-27.27-2.96-34.13-14.83-6.86-11.87-5.1-26.99,4.22-36.97Zm60.94,74.59c-13.71,0-25.93-9.08-29.91-22.14,18.47,3.44,27.33-3.56,29.91-12.11,2.58,8.55,11.44,15.55,29.91,12.11-3.98,13.06-16.2,22.14-29.91,22.14Zm65.16-37.62c-6.86,11.87-20.83,17.91-34.13,14.83,12.21-14.28,10.59-25.45,4.47-31.96,8.7,2.05,19.18-2.13,25.44-19.84,9.32,9.98,11.08,25.1,4.22,36.97Zm-53.1-30.66v-13.92s-12.06-6.96-12.06-6.96l-12.06,6.96v13.92s12.06,6.96,12.06,6.96l12.06-6.96Z"/>
  <g>
    <path class="cls-1" d="m317.33,107.66l-.1-.82h-20.59l-.1.82c3.71,1.84,5.04,4.09,5.04,9.07v46.82c0,4.98-1.33,7.23-5.04,9.07l.1.82h20.59l.1-.82c-3.65-1.84-5.04-4.09-5.04-9.07v-46.82c0-4.98,1.4-7.23,5.04-9.07Z"/>
    <path class="cls-1" d="m368.41,164.19h-20.62v-21.41h15.98c4.35,0,6.82,1.36,8.63,4.12l.82-.09v-17.1l-.82-.1c-1.81,2.76-4.28,4.06-8.63,4.06h-15.98v-17.57h18.49c6.28,0,10.82,1.65,14.56,5.52l.82-.35-3.77-14.43h-45.49l-.1.82c3.49,1.84,4.79,4.09,4.79,9.07v46.82c0,4.98-1.3,7.23-4.79,9.07l.1.82h47.71l3.68-14.94-.73-.35c-4.06,4.15-8.6,6.03-14.66,6.03Z"/>
    <path class="cls-1" d="m591.28,164.03l-21.95-57.19h-17.8l-.1.95c4.06,1.9,5.11,4.82,3.39,9.33l-18.27,46.91c-1.84,4.63-3.55,6.76-6.53,8.6l.03.82h19.57l.1-.82c-3.43-1.74-4.12-3.74-2.44-8.25l2.7-7.3h27.41l2.79,7.3c1.68,4.5.98,6.5-2.41,8.25l.1.82h19.89l.03-.82c-2.98-1.84-4.69-3.97-6.5-8.6Zm-37.78-16.34l10.18-27.15,10.18,27.15h-20.37Z"/>
    <path class="cls-1" d="m263.96,134.78l-6.47-1.74c-6.47-1.71-11.74-3.33-11.74-9.17,0-5.52,4.69-8.79,11.67-8.79s13.96,2.82,20.11,9.55l.86-.35-2.79-16.59-.63-.1c-.76.57-1.59.83-2.51.83-3.14,0-7.64-2.6-15.16-2.6-13.42,0-22.4,7.36-22.4,19.22,0,10.37,6.98,16.08,17.22,18.53l6.57,1.68c6.31,1.55,12.34,3.97,12.34,10.15,0,5.55-4.85,9.29-12.43,9.29s-16.46-3.11-23.89-11.07l-.86.35,1.96,8.3c1.01,3.79,1.99,7.95,6.38,9.27,4.61,1.45,9.89,2.76,16.62,2.76,14.69,0,23.41-7.84,23.41-19.95s-8.06-16.88-18.27-19.57Z"/>
    <path class="cls-1" d="m514.17,158.61l-8.28-12.77c8.81-2.42,14.75-9.97,14.75-19.2,0-11.36-9.14-19.79-21.57-19.79h-32.13l-.1.82c3.49,1.84,4.79,4.09,4.79,9.07v46.82c0,4.98-1.3,7.23-4.79,9.07l.1.82h19.89l.1-.82c-3.3-1.84-4.6-4.09-4.6-9.07v-16.78h11.74l13.54,20.9c2.12,3.27,6.97,8.84,18.84,5.78l.1-.82c-4.19-2.76-6.77-5.37-12.38-14.02Zm-15.64-21.19h-16.21v-21.28h16.21c6.31,0,11.07,4.63,11.07,10.59s-4.76,10.69-11.07,10.69Z"/>
    <path class="cls-1" d="m444.2,158.61s-8.28-12.77-8.28-12.77c8.81-2.42,14.75-9.97,14.75-19.2,0-11.36-9.14-19.79-21.57-19.79h-32.13l-.1.82c3.49,1.84,4.79,4.09,4.79,9.07v46.82c0,4.98-1.3,7.23-4.79,9.07l.1.82h19.89l.1-.82c-3.3-1.84-4.6-4.09-4.6-9.07v-16.78h11.74l13.54,20.9c5.33,8.23,16.43,6.96,20.55,5.78l.1-.83c-6.53-3.11-10.12-7.89-14.09-14.02Zm-15.64-21.19h-16.21v-21.28h16.21c6.31,0,11.07,4.63,11.07,10.59s-4.76,10.69-11.07,10.69Z"/>
  </g>
</svg>